<svg width="137" height="24" viewBox="0 0 137 24" fill="none" xmlns="http://www.w3.org/2000/svg">
<path d="M9.76376 18.288C8.54776 18.288 7.45976 18.08 6.49976 17.664C5.55576 17.248 4.81176 16.64 4.26776 15.84C3.72376 15.04 3.43576 14.072 3.40376 12.936H6.83576C6.85176 13.432 6.97976 13.88 7.21976 14.28C7.45976 14.68 7.79576 15 8.22776 15.24C8.65976 15.464 9.17176 15.576 9.76376 15.576C10.2598 15.576 10.6918 15.496 11.0598 15.336C11.4438 15.16 11.7398 14.92 11.9478 14.616C12.1718 14.312 12.2838 13.952 12.2838 13.536C12.2838 13.04 12.1558 12.632 11.8998 12.312C11.6598 11.976 11.3318 11.704 10.9158 11.496C10.4998 11.272 10.0198 11.072 9.47576 10.896C8.94776 10.704 8.38776 10.512 7.79576 10.32C6.49976 9.872 5.50776 9.296 4.81976 8.592C4.13176 7.872 3.78776 6.92 3.78776 5.736C3.78776 4.728 4.02776 3.864 4.50776 3.144C4.98776 2.424 5.65976 1.872 6.52376 1.488C7.38776 1.104 8.37176 0.912 9.47576 0.912C10.6118 0.912 11.6118 1.112 12.4758 1.512C13.3398 1.896 14.0198 2.456 14.5158 3.192C15.0118 3.928 15.2758 4.792 15.3078 5.784H11.8278C11.8118 5.416 11.7078 5.072 11.5158 4.752C11.3238 4.416 11.0518 4.152 10.6998 3.96C10.3478 3.752 9.92376 3.648 9.42776 3.648C9.01176 3.632 8.63576 3.696 8.29976 3.84C7.96376 3.984 7.69176 4.2 7.48376 4.488C7.29176 4.76 7.19576 5.104 7.19576 5.52C7.19576 5.92 7.29176 6.256 7.48376 6.528C7.67576 6.8 7.94776 7.04 8.29976 7.248C8.65176 7.44 9.06776 7.624 9.54776 7.8C10.0278 7.96 10.5478 8.128 11.1078 8.304C11.9558 8.592 12.7238 8.936 13.4118 9.336C14.1158 9.72 14.6758 10.224 15.0918 10.848C15.5078 11.472 15.7158 12.296 15.7158 13.32C15.7158 14.2 15.4838 15.016 15.0198 15.768C14.5718 16.52 13.9078 17.128 13.0278 17.592C12.1478 18.056 11.0598 18.288 9.76376 18.288ZM23.4297 18C22.5817 18 21.8377 17.872 21.1977 17.616C20.5737 17.344 20.0857 16.904 19.7337 16.296C19.3817 15.672 19.2057 14.824 19.2057 13.752V8.808H17.1657V6.096H19.2057L19.5657 2.856H22.4457V6.096H25.6137V8.808H22.4457V13.8C22.4457 14.344 22.5657 14.72 22.8057 14.928C23.0457 15.136 23.4537 15.24 24.0297 15.24H25.5417V18H23.4297ZM32.0598 18.288C31.0518 18.288 30.2118 18.128 29.5398 17.808C28.8838 17.488 28.3958 17.056 28.0758 16.512C27.7558 15.968 27.5958 15.368 27.5958 14.712C27.5958 13.976 27.7798 13.336 28.1478 12.792C28.5318 12.232 29.1078 11.792 29.8758 11.472C30.6438 11.152 31.6118 10.992 32.7798 10.992H35.7798C35.7798 10.416 35.6918 9.944 35.5158 9.576C35.3558 9.192 35.0998 8.912 34.7478 8.736C34.4118 8.544 33.9798 8.448 33.4518 8.448C32.8278 8.448 32.2918 8.584 31.8438 8.856C31.4118 9.128 31.1398 9.544 31.0278 10.104H27.8838C27.9798 9.224 28.2758 8.464 28.7718 7.824C29.2678 7.184 29.9238 6.688 30.7398 6.336C31.5558 5.984 32.4598 5.808 33.4518 5.808C34.5878 5.808 35.5718 6 36.4038 6.384C37.2358 6.752 37.8758 7.304 38.3238 8.04C38.7878 8.76 39.0198 9.64 39.0198 10.68V18H36.2838L35.9238 16.152C35.7638 16.472 35.5558 16.76 35.2998 17.016C35.0598 17.272 34.7798 17.496 34.4598 17.688C34.1398 17.88 33.7798 18.024 33.3798 18.12C32.9798 18.232 32.5398 18.288 32.0598 18.288ZM32.8278 15.792C33.2598 15.792 33.6358 15.72 33.9558 15.576C34.2918 15.416 34.5718 15.208 34.7958 14.952C35.0358 14.696 35.2198 14.4 35.3478 14.064C35.4918 13.728 35.5878 13.368 35.6358 12.984H33.1398C32.6438 12.984 32.2358 13.048 31.9158 13.176C31.6118 13.288 31.3878 13.456 31.2438 13.68C31.0998 13.888 31.0278 14.136 31.0278 14.424C31.0278 14.712 31.0998 14.96 31.2438 15.168C31.3878 15.376 31.5958 15.536 31.8678 15.648C32.1398 15.744 32.4598 15.792 32.8278 15.792ZM41.6318 18V6.096H44.5118L44.8238 8.328C45.1118 7.816 45.4638 7.376 45.8798 7.008C46.3118 6.624 46.7998 6.328 47.3438 6.12C47.9038 5.912 48.5118 5.808 49.1678 5.808V9.24H48.2798C47.7838 9.24 47.3198 9.296 46.8878 9.408C46.4718 9.52 46.1118 9.704 45.8078 9.96C45.5038 10.216 45.2718 10.568 45.1118 11.016C44.9518 11.448 44.8718 12 44.8718 12.672V18H41.6318ZM56.372 18C55.524 18 54.78 17.872 54.14 17.616C53.516 17.344 53.028 16.904 52.676 16.296C52.324 15.672 52.148 14.824 52.148 13.752V8.808H50.108V6.096H52.148L52.508 2.856H55.388V6.096H58.556V8.808H55.388V13.8C55.388 14.344 55.508 14.72 55.748 14.928C55.988 15.136 56.396 15.24 56.972 15.24H58.484V18H56.372ZM65.362 18.288C64.37 18.288 63.522 18.08 62.818 17.664C62.13 17.248 61.602 16.632 61.234 15.816C60.882 14.984 60.706 13.968 60.706 12.768V6.096H63.922V12.48C63.922 13.472 64.122 14.232 64.522 14.76C64.922 15.288 65.554 15.552 66.418 15.552C66.978 15.552 67.474 15.424 67.906 15.168C68.338 14.896 68.674 14.52 68.914 14.04C69.154 13.544 69.274 12.944 69.274 12.24V6.096H72.514V18H69.658L69.418 16.008C69.034 16.696 68.498 17.248 67.81 17.664C67.122 18.08 66.306 18.288 65.362 18.288ZM75.3475 23.28V6.096H78.2275L78.5875 7.752C78.8435 7.4 79.1475 7.08 79.4995 6.792C79.8515 6.488 80.2755 6.248 80.7715 6.072C81.2675 5.896 81.8435 5.808 82.4995 5.808C83.6195 5.808 84.6115 6.08 85.4755 6.624C86.3555 7.168 87.0515 7.912 87.5635 8.856C88.0755 9.8 88.3315 10.872 88.3315 12.072C88.3315 13.256 88.0755 14.32 87.5635 15.264C87.0515 16.208 86.3555 16.952 85.4755 17.496C84.6115 18.024 83.6195 18.288 82.4995 18.288C81.6195 18.288 80.8515 18.128 80.1955 17.808C79.5395 17.472 79.0035 17.016 78.5875 16.44V23.28H75.3475ZM81.7795 15.456C82.4035 15.456 82.9635 15.312 83.4595 15.024C83.9555 14.736 84.3395 14.336 84.6115 13.824C84.8995 13.312 85.0435 12.728 85.0435 12.072C85.0435 11.4 84.8995 10.808 84.6115 10.296C84.3395 9.784 83.9555 9.384 83.4595 9.096C82.9635 8.792 82.4035 8.64 81.7795 8.64C81.1395 8.64 80.5715 8.792 80.0755 9.096C79.5795 9.384 79.1875 9.784 78.8995 10.296C78.6275 10.808 78.4915 11.392 78.4915 12.048C78.4915 12.704 78.6275 13.296 78.8995 13.824C79.1875 14.336 79.5795 14.736 80.0755 15.024C80.5715 15.312 81.1395 15.456 81.7795 15.456ZM101.705 18.288C100.617 18.288 99.6172 18.088 98.7052 17.688C97.7932 17.288 97.0652 16.68 96.5212 15.864C95.9772 15.048 95.6892 14.016 95.6572 12.768H98.8492C98.8652 13.296 98.9852 13.776 99.2092 14.208C99.4332 14.624 99.7532 14.96 100.169 15.216C100.601 15.456 101.121 15.576 101.729 15.576C102.289 15.576 102.761 15.464 103.145 15.24C103.545 15.016 103.849 14.72 104.057 14.352C104.265 13.984 104.369 13.56 104.369 13.08C104.369 12.52 104.233 12.048 103.961 11.664C103.689 11.28 103.305 10.992 102.809 10.8C102.329 10.592 101.769 10.488 101.129 10.488H99.8812V7.824H101.129C101.913 7.824 102.569 7.648 103.097 7.296C103.625 6.928 103.889 6.384 103.889 5.664C103.889 5.056 103.689 4.568 103.289 4.2C102.905 3.832 102.377 3.648 101.705 3.648C100.937 3.648 100.337 3.872 99.9052 4.32C99.4892 4.768 99.2572 5.32 99.2092 5.976H96.0652C96.1132 4.92 96.3772 4.016 96.8572 3.264C97.3372 2.496 97.9932 1.912 98.8252 1.512C99.6572 1.112 100.617 0.912 101.705 0.912C102.857 0.912 103.833 1.12 104.633 1.536C105.433 1.936 106.041 2.48 106.457 3.168C106.873 3.84 107.081 4.584 107.081 5.4C107.081 6.04 106.953 6.616 106.697 7.128C106.457 7.624 106.137 8.04 105.737 8.376C105.337 8.712 104.881 8.96 104.369 9.12C105.009 9.232 105.561 9.472 106.025 9.84C106.505 10.208 106.873 10.68 107.129 11.256C107.401 11.816 107.537 12.464 107.537 13.2C107.537 14.112 107.313 14.96 106.865 15.744C106.417 16.512 105.761 17.128 104.897 17.592C104.033 18.056 102.969 18.288 101.705 18.288Z" fill="#1E0E62"/>
</svg>
